<svg data-v-423bf9ae="" xmlns="http://www.w3.org/2000/svg" viewBox="0 0 380.22857666015625 60" class="font"><!----><!----><defs data-v-423bf9ae=""><linearGradient data-v-423bf9ae="" gradientTransform="rotate(25)" id="a78cf62f-2346-4045-aaf9-3f340fc725c3" x1="0%" y1="0%" x2="100%" y2="0%"><stop data-v-423bf9ae="" offset="0%" style="stop-color: rgb(234, 31, 89); stop-opacity: 1;"></stop><stop data-v-423bf9ae="" offset="100%" style="stop-color: rgb(250, 145, 105); stop-opacity: 1;"></stop></linearGradient></defs><g data-v-423bf9ae="" id="7cd7e4b7-6347-49c2-90d7-dca3cdfbb2f1" fill="url(#a78cf62f-2346-4045-aaf9-3f340fc725c3)" transform="matrix(4.285714285714286,0,0,4.285714285714286,-0.3428589925169945,-17.099999802453176)"><path d="M8.44 4.33L8.44 4.33Q8.86 4.33 9.30 4.25Q9.73 4.17 10.07 4.03L10.07 4.03Q10.05 4.93 9.61 5.37Q9.17 5.81 8.32 5.81L8.32 5.81Q7.91 5.81 7.41 5.74Q6.92 5.67 6.15 5.50L6.15 5.50L4.21 14.49L2.20 14.49L4.19 5.22L4.02 5.22Q2.66 5.22 2.02 5.91Q1.39 6.61 1.39 8.05L1.39 8.05Q1.39 8.32 1.42 8.51Q1.46 8.71 1.54 8.89L1.54 8.89Q1.57 8.95 1.57 8.97Q1.58 8.99 1.58 9.00L1.58 9.00Q0.80 9.00 0.44 8.67Q0.08 8.34 0.08 7.64L0.08 7.64Q0.08 5.98 1.34 4.99Q2.59 4.00 4.86 4.00L4.86 4.00Q5.32 4.00 5.75 4.04Q6.17 4.07 6.85 4.17L6.85 4.17Q7.43 4.27 7.76 4.30Q8.09 4.33 8.44 4.33ZM11.28 8.13L11.28 8.13L11.28 8.23L11.44 7.49L13.45 7.49L12.45 12.25Q12.42 12.38 12.40 12.48Q12.39 12.59 12.39 12.70L12.39 12.70Q12.39 13.01 12.53 13.15Q12.67 13.30 12.96 13.30L12.96 13.30Q13.33 13.30 13.62 12.96Q13.92 12.61 14.10 11.98L14.10 11.98L14.69 11.98Q14.24 13.27 13.52 13.92Q12.81 14.57 11.87 14.57L11.87 14.57Q11.27 14.57 10.91 14.24Q10.56 13.90 10.50 13.29L10.50 13.29Q10.07 13.93 9.54 14.25Q9.02 14.57 8.41 14.57L8.41 14.57Q7.55 14.57 7.05 13.99Q6.55 13.40 6.55 12.32L6.55 12.32Q6.55 11.54 6.79 10.68Q7.03 9.83 7.45 9.13L7.45 9.13Q7.97 8.30 8.65 7.86Q9.34 7.42 10.15 7.42L10.15 7.42Q10.70 7.42 10.99 7.61Q11.28 7.80 11.28 8.13ZM10.49 11.98L11.16 8.82Q11.16 8.61 11.00 8.45Q10.85 8.29 10.58 8.29L10.58 8.29Q9.81 8.29 9.22 9.58Q8.62 10.86 8.62 12.12L8.62 12.12Q8.62 12.67 8.78 12.94Q8.93 13.22 9.32 13.22L9.32 13.22Q9.69 13.22 10.03 12.87Q10.37 12.52 10.49 11.98L10.49 11.98ZM13.99 12.89L13.99 12.89Q13.99 12.71 14.01 12.48Q14.04 12.25 14.10 11.98L14.10 11.98L15.05 7.49L17.07 7.49L16.06 12.25Q16.04 12.33 16.03 12.43Q16.02 12.52 16.02 12.60L16.02 12.60Q16.02 12.89 16.12 13.05Q16.23 13.22 16.44 13.22L16.44 13.22Q16.80 13.22 17.09 12.90Q17.37 12.59 17.56 11.98L17.56 11.98L18.51 7.49L20.52 7.49L19.52 12.25Q19.49 12.40 19.47 12.54Q19.45 12.67 19.45 12.75L19.45 12.75Q19.45 12.98 19.56 13.10Q19.68 13.22 19.92 13.22L19.92 13.22Q20.41 13.22 20.88 12.71Q21.35 12.19 21.73 11.26L21.73 11.26Q22.01 10.58 22.18 9.84Q22.34 9.10 22.34 8.54L22.34 8.54Q22.32 8.60 22.17 8.64Q22.02 8.68 21.90 8.68L21.90 8.68Q21.67 8.68 21.53 8.46Q21.39 8.25 21.39 7.97L21.39 7.97Q21.39 7.62 21.62 7.41Q21.85 7.21 22.26 7.21L22.26 7.21Q22.69 7.21 22.92 7.53Q23.14 7.85 23.14 8.43L23.14 8.43Q23.14 9.38 22.90 10.42Q22.65 11.47 22.23 12.32L22.23 12.32Q21.67 13.43 20.89 14Q20.10 14.57 19.15 14.57L19.15 14.57Q18.45 14.57 18.02 14.27Q17.60 13.97 17.47 13.40L17.47 13.40Q17.07 13.99 16.58 14.28Q16.10 14.57 15.48 14.57L15.48 14.57Q14.78 14.57 14.38 14.13Q13.99 13.69 13.99 12.89ZM27.09 4.00L27.09 4.00Q27.78 4.00 28.26 4.44Q28.74 4.87 28.74 5.52L28.74 5.52Q28.74 5.68 28.73 5.82Q28.73 5.96 28.70 6.09L28.70 6.09L28.04 6.09Q28.07 5.87 28.07 5.82Q28.07 5.77 28.07 5.71L28.07 5.71Q28.07 5.49 27.92 5.36Q27.78 5.24 27.54 5.24L27.54 5.24Q27.19 5.24 26.93 5.53Q26.67 5.82 26.56 6.38L26.56 6.38L26.32 7.49L27.34 7.49L27.24 8.05L26.21 8.05L24.60 15.61Q24.35 16.80 23.72 17.39Q23.09 17.99 22.09 17.99L22.09 17.99Q21.41 17.99 20.92 17.56Q20.44 17.12 20.44 16.48L20.44 16.48Q20.44 15.75 20.92 15.29Q21.41 14.83 22.85 14.38L22.85 14.38L24.54 6.38Q24.79 5.21 25.44 4.61Q26.08 4.00 27.09 4.00ZM22.57 15.65L22.75 14.84Q21.94 15.11 21.57 15.46Q21.21 15.81 21.21 16.28L21.21 16.28Q21.21 16.45 21.38 16.60Q21.56 16.74 21.77 16.74L21.77 16.74Q22.04 16.74 22.25 16.46Q22.46 16.18 22.57 15.65L22.57 15.65ZM30.55 5.63L30.55 5.63Q30.55 6.09 30.22 6.41Q29.89 6.73 29.43 6.73L29.43 6.73Q28.97 6.73 28.64 6.41Q28.32 6.09 28.32 5.63L28.32 5.63Q28.32 5.17 28.64 4.84Q28.97 4.51 29.43 4.51L29.43 4.51Q29.89 4.51 30.22 4.84Q30.55 5.17 30.55 5.63ZM26.98 12.89L26.98 12.89Q26.98 12.71 27.01 12.48Q27.03 12.25 27.09 11.98L27.09 11.98L28.04 7.49L30.06 7.49L29.05 12.25Q29.02 12.38 29.01 12.48Q28.99 12.59 28.99 12.70L28.99 12.70Q28.99 12.98 29.13 13.10Q29.26 13.22 29.57 13.22L29.57 13.22Q29.96 13.22 30.31 12.87Q30.66 12.53 30.83 11.98L30.83 11.98L31.42 11.98Q30.97 13.26 30.21 13.92Q29.46 14.57 28.48 14.57L28.48 14.57Q27.78 14.57 27.38 14.13Q26.98 13.69 26.98 12.89ZM34.24 7.42L34.24 7.42Q34.79 7.42 35.08 7.61Q35.38 7.80 35.38 8.16L35.38 8.16L35.52 7.49L37.53 7.49L35.41 17.49L33.29 17.99L34.17 13.80Q33.81 14.18 33.40 14.38Q32.98 14.57 32.51 14.57L32.51 14.57Q31.64 14.57 31.14 13.99Q30.65 13.40 30.65 12.32L30.65 12.32Q30.65 11.54 30.88 10.68Q31.12 9.83 31.54 9.13L31.54 9.13Q32.06 8.30 32.75 7.86Q33.43 7.42 34.24 7.42ZM34.51 12.22L35.25 8.76Q35.22 8.55 35.07 8.42Q34.92 8.29 34.68 8.29L34.68 8.29Q33.91 8.29 33.31 9.58Q32.72 10.86 32.72 12.12L32.72 12.12Q32.72 12.67 32.87 12.94Q33.03 13.22 33.42 13.22L33.42 13.22Q33.74 13.22 34.05 12.94Q34.36 12.66 34.51 12.22L34.51 12.22ZM44.86 10.50L44.00 14.49L41.99 14.49L43.89 5.59L45.96 5.31L44.97 9.98Q45.95 9.90 46.68 8.83Q47.42 7.77 47.42 6.54L47.42 6.54Q47.42 5.64 46.96 5.14Q46.51 4.63 45.68 4.63L45.68 4.63Q43.97 4.63 43.02 5.54Q42.06 6.44 42.06 8.04L42.06 8.04Q42.06 8.30 42.09 8.50Q42.13 8.69 42.21 8.88L42.21 8.88Q42.24 8.93 42.25 8.95Q42.25 8.97 42.25 8.99L42.25 8.99Q41.47 8.99 41.11 8.66Q40.75 8.33 40.75 7.63L40.75 7.63Q40.75 6.93 41.22 6.23Q41.69 5.53 42.53 4.97L42.53 4.97Q43.25 4.51 44.07 4.25Q44.88 3.99 45.67 3.99L45.67 3.99Q47.21 3.99 48.09 4.75Q48.97 5.50 48.97 6.75L48.97 6.75Q48.97 7.49 48.64 8.20Q48.31 8.92 47.73 9.45L47.73 9.45Q47.17 9.97 46.45 10.23Q45.74 10.50 44.93 10.50L44.93 10.50L44.86 10.50ZM48.50 12.33L48.50 12.33Q48.50 11.54 48.76 10.64Q49.01 9.74 49.46 9.04L49.46 9.04Q49.98 8.22 50.71 7.79Q51.44 7.36 52.33 7.36L52.33 7.36Q53.23 7.36 53.68 7.92Q54.12 8.48 54.12 9.60L54.12 9.60Q54.15 9.62 54.19 9.63Q54.22 9.63 54.28 9.63L54.28 9.63Q54.71 9.63 55.31 9.39Q55.92 9.16 56.43 8.79L56.43 8.79L56.56 9.17Q56.17 9.59 55.52 9.90Q54.87 10.21 54.08 10.33L54.08 10.33Q53.91 12.22 52.99 13.38Q52.07 14.55 50.74 14.55L50.74 14.55Q49.64 14.55 49.07 13.99Q48.50 13.43 48.50 12.33ZM52.44 8.22L52.44 8.22Q51.77 8.22 51.18 9.58Q50.58 10.93 50.58 12.15L50.58 12.15Q50.58 12.81 50.73 13.05Q50.88 13.29 51.30 13.29L51.30 13.29Q51.81 13.29 52.28 12.45Q52.75 11.61 52.92 10.37L52.92 10.37Q52.72 10.33 52.63 10.19Q52.54 10.04 52.54 9.79L52.54 9.79Q52.54 9.52 52.65 9.32Q52.77 9.13 52.98 9.03L52.98 9.03Q52.95 8.58 52.83 8.40Q52.71 8.22 52.44 8.22ZM57.44 9.17L56.32 14.49L54.31 14.49L55.79 7.49L57.81 7.49L57.62 8.36Q58.24 7.84 58.60 7.67Q58.95 7.49 59.32 7.49L59.32 7.49Q59.75 7.49 60.02 7.79Q60.28 8.09 60.28 8.54L60.28 8.54Q60.28 8.97 60.00 9.27Q59.72 9.56 59.28 9.56L59.28 9.56Q59.04 9.56 58.91 9.45Q58.77 9.34 58.72 8.99L58.72 8.99Q58.67 8.76 58.62 8.70Q58.56 8.64 58.46 8.64L58.46 8.64Q58.23 8.64 58.02 8.74Q57.81 8.83 57.44 9.17L57.44 9.17ZM60.48 8.05L60.59 7.49L61.05 7.49L61.47 5.56L63.55 5.28L63.07 7.49L63.91 7.49L63.80 8.05L62.96 8.05L62.06 12.25Q62.03 12.38 62.02 12.48Q62.01 12.59 62.01 12.70L62.01 12.70Q62.01 12.98 62.14 13.10Q62.27 13.22 62.58 13.22L62.58 13.22Q62.97 13.22 63.32 12.87Q63.67 12.53 63.84 11.98L63.84 11.98L64.43 11.98Q63.98 13.26 63.22 13.92Q62.47 14.57 61.49 14.57L61.49 14.57Q60.79 14.57 60.39 14.13Q59.99 13.69 59.99 12.89L59.99 12.89Q59.99 12.71 60.02 12.48Q60.05 12.25 60.10 11.98L60.10 11.98L60.94 8.05L60.48 8.05ZM67.58 4.00L67.58 4.00Q68.26 4.00 68.75 4.44Q69.23 4.87 69.23 5.52L69.23 5.52Q69.23 5.68 69.22 5.82Q69.22 5.96 69.19 6.09L69.19 6.09L68.53 6.09Q68.56 5.87 68.56 5.82Q68.56 5.77 68.56 5.71L68.56 5.71Q68.56 5.49 68.41 5.36Q68.26 5.24 68.03 5.24L68.03 5.24Q67.68 5.24 67.42 5.53Q67.16 5.82 67.05 6.38L67.05 6.38L66.81 7.49L67.83 7.49L67.73 8.05L66.70 8.05L65.09 15.61Q64.83 16.80 64.20 17.39Q63.57 17.99 62.58 17.99L62.58 17.99Q61.89 17.99 61.41 17.56Q60.93 17.12 60.93 16.48L60.93 16.48Q60.93 15.75 61.41 15.29Q61.89 14.83 63.34 14.38L63.34 14.38L65.03 6.38Q65.28 5.21 65.93 4.61Q66.57 4.00 67.58 4.00ZM63.06 15.65L63.24 14.84Q62.43 15.11 62.06 15.46Q61.70 15.81 61.70 16.28L61.70 16.28Q61.70 16.45 61.87 16.60Q62.05 16.74 62.26 16.74L62.26 16.74Q62.52 16.74 62.73 16.46Q62.94 16.18 63.06 15.65L63.06 15.65ZM67.10 12.33L67.10 12.33Q67.10 11.54 67.36 10.64Q67.62 9.74 68.07 9.04L68.07 9.04Q68.59 8.22 69.31 7.79Q70.04 7.36 70.94 7.36L70.94 7.36Q71.83 7.36 72.28 7.92Q72.73 8.48 72.73 9.60L72.73 9.60Q72.76 9.62 72.79 9.63Q72.83 9.63 72.88 9.63L72.88 9.63Q73.32 9.63 73.92 9.39Q74.52 9.16 75.04 8.79L75.04 8.79L75.17 9.17Q74.77 9.59 74.12 9.90Q73.47 10.21 72.69 10.33L72.69 10.33Q72.52 12.22 71.60 13.38Q70.67 14.55 69.34 14.55L69.34 14.55Q68.25 14.55 67.68 13.99Q67.10 13.43 67.10 12.33ZM71.05 8.22L71.05 8.22Q70.38 8.22 69.78 9.58Q69.19 10.93 69.19 12.15L69.19 12.15Q69.19 12.81 69.34 13.05Q69.48 13.29 69.90 13.29L69.90 13.29Q70.42 13.29 70.89 12.45Q71.36 11.61 71.53 10.37L71.53 10.37Q71.33 10.33 71.24 10.19Q71.15 10.04 71.15 9.79L71.15 9.79Q71.15 9.52 71.26 9.32Q71.37 9.13 71.58 9.03L71.58 9.03Q71.55 8.58 71.44 8.40Q71.32 8.22 71.05 8.22ZM73.42 12.89L73.42 12.89Q73.42 12.71 73.44 12.48Q73.47 12.25 73.53 11.98L73.53 11.98L75.03 4.97L77.10 4.69L75.49 12.25Q75.46 12.38 75.45 12.48Q75.43 12.59 75.43 12.70L75.43 12.70Q75.43 12.98 75.57 13.10Q75.70 13.22 76.01 13.22L76.01 13.22Q76.40 13.22 76.75 12.87Q77.10 12.53 77.27 11.98L77.27 11.98L77.85 11.98Q77.41 13.26 76.65 13.92Q75.89 14.57 74.91 14.57L74.91 14.57Q74.21 14.57 73.82 14.13Q73.42 13.69 73.42 12.89ZM80.65 5.63L80.65 5.63Q80.65 6.09 80.33 6.41Q80.00 6.73 79.53 6.73L79.53 6.73Q79.07 6.73 78.75 6.41Q78.43 6.09 78.43 5.63L78.43 5.63Q78.43 5.17 78.75 4.84Q79.07 4.51 79.53 4.51L79.53 4.51Q80.00 4.51 80.33 4.84Q80.65 5.17 80.65 5.63ZM77.08 12.89L77.08 12.89Q77.08 12.71 77.11 12.48Q77.14 12.25 77.20 11.98L77.20 11.98L78.15 7.49L80.16 7.49L79.16 12.25Q79.13 12.38 79.11 12.48Q79.10 12.59 79.10 12.70L79.10 12.70Q79.10 12.98 79.23 13.10Q79.37 13.22 79.67 13.22L79.67 13.22Q80.07 13.22 80.42 12.87Q80.77 12.53 80.93 11.98L80.93 11.98L81.52 11.98Q81.07 13.26 80.32 13.92Q79.56 14.57 78.58 14.57L78.58 14.57Q77.88 14.57 77.48 14.13Q77.08 13.69 77.08 12.89ZM80.74 12.33L80.74 12.33Q80.74 11.54 81.00 10.64Q81.26 9.74 81.70 9.04L81.70 9.04Q82.22 8.22 82.95 7.79Q83.68 7.36 84.57 7.36L84.57 7.36Q85.47 7.36 85.92 7.92Q86.37 8.48 86.37 9.60L86.37 9.60Q86.39 9.62 86.43 9.63Q86.46 9.63 86.52 9.63L86.52 9.63Q86.95 9.63 87.56 9.39Q88.16 9.16 88.68 8.79L88.68 8.79L88.80 9.17Q88.41 9.59 87.76 9.90Q87.11 10.21 86.32 10.33L86.32 10.33Q86.16 12.22 85.23 13.38Q84.31 14.55 82.98 14.55L82.98 14.55Q81.89 14.55 81.31 13.99Q80.74 13.43 80.74 12.33ZM84.69 8.22L84.69 8.22Q84.01 8.22 83.42 9.58Q82.82 10.93 82.82 12.15L82.82 12.15Q82.82 12.81 82.97 13.05Q83.12 13.29 83.54 13.29L83.54 13.29Q84.06 13.29 84.53 12.45Q84.99 11.61 85.16 10.37L85.16 10.37Q84.97 10.33 84.88 10.19Q84.78 10.04 84.78 9.79L84.78 9.79Q84.78 9.52 84.90 9.32Q85.01 9.13 85.22 9.03L85.22 9.03Q85.19 8.58 85.07 8.40Q84.95 8.22 84.69 8.22Z"></path></g><!----><!----></svg>